<svg width="64" height="64" viewBox="0 0 64 64" fill="none" xmlns="http://www.w3.org/2000/svg">
  <defs>
    <linearGradient id="card-back" x1="0" y1="0" x2="1" y2="1">
      <stop offset="0%" stop-color="#1e293b"/>
      <stop offset="100%" stop-color="#0f172a"/>
    </linearGradient>
    <linearGradient id="card-edge" x1="0" y1="0" x2="1" y2="1">
      <stop offset="0%" stop-color="#10b981"/>
      <stop offset="100%" stop-color="#34d399"/>
    </linearGradient>
  </defs>
  <g transform="translate(8 6)">
    <rect x="0" y="4" width="40" height="50" rx="6" transform="rotate(-12 0 4)" fill="url(#card-back)" stroke="url(#card-edge)" stroke-width="2" opacity="0.55"/>
    <rect x="4" y="4" width="40" height="50" rx="6" transform="rotate(0 4 4)" fill="url(#card-back)" stroke="url(#card-edge)" stroke-width="2" opacity="0.78"/>
    <rect x="8" y="4" width="40" height="50" rx="6" transform="rotate(12 8 4)" fill="url(#card-back)" stroke="url(#card-edge)" stroke-width="2"/>
    <rect x="14" y="12" width="28" height="34" rx="5" transform="rotate(12 14 12)" fill="#0f172a" opacity="0.85"/>
    <path d="M16 20 L26 28 L36 20" stroke="#22c55e" stroke-width="2" fill="none" stroke-linecap="round" stroke-linejoin="round" transform="rotate(12 26 24)"/>
    <path d="M16 28 L26 36 L36 28" stroke="#22c55e" stroke-width="2" fill="none" stroke-linecap="round" stroke-linejoin="round" transform="rotate(12 26 32)"/>
  </g>
</svg>
